<svg width="20" height="20" viewBox="0 0 20 20" fill="none" xmlns="http://www.w3.org/2000/svg">
<path fill-rule="evenodd" clip-rule="evenodd" d="M20 10C20 15.5228 15.5228 20 10 20C4.47715 20 0 15.5228 0 10C0 4.47715 4.47715 0 10 0C15.5228 0 20 4.47715 20 10ZM8.08153 5.57071C8.0385 5.26949 8.27223 5 8.5765 5H11.4235C11.7278 5 11.9615 5.26949 11.9185 5.57071L11.0613 11.5707C11.0261 11.817 10.8152 12 10.5664 12H9.43365C9.18482 12 8.97386 11.817 8.93867 11.5707L8.08153 5.57071ZM9.5 13C9.22386 13 9 13.2239 9 13.5V14.5C9 14.7761 9.22386 15 9.5 15H10.5C10.7761 15 11 14.7761 11 14.5V13.5C11 13.2239 10.7761 13 10.5 13H9.5Z" fill="white"/>
</svg>
