<svg width="16" height="16" viewBox="0 0 16 16" fill="none" xmlns="http://www.w3.org/2000/svg">
<path fill-rule="evenodd" clip-rule="evenodd" d="M8 0C3.576 0 0 3.576 0 8C0 12.424 3.576 16 8 16C12.424 16 16 12.424 16 8C16 3.576 12.424 0 8 0Z" fill="#FF0000"/>
<path fill-rule="evenodd" clip-rule="evenodd" d="M11.6464 10.5184C11.8417 10.7137 11.8417 11.0303 11.6464 11.2256L11.2256 11.6464C11.0303 11.8417 10.7137 11.8417 10.5184 11.6464L8 9.128L5.48155 11.6464C5.28629 11.8417 4.96971 11.8417 4.77445 11.6464L4.35355 11.2256C4.15829 11.0303 4.15829 10.7137 4.35355 10.5184L6.872 8L4.35355 5.48155C4.15829 5.28629 4.15829 4.96971 4.35355 4.77445L4.77445 4.35355C4.96971 4.15829 5.28629 4.15829 5.48155 4.35355L8 6.872L10.5184 4.35355C10.7137 4.15829 11.0303 4.15829 11.2256 4.35355L11.6464 4.77445C11.8417 4.96971 11.8417 5.28629 11.6464 5.48155L9.128 8L11.6464 10.5184Z" fill="white"/>
</svg>
