<svg width="16" height="16" viewBox="0 0 16 16" fill="none" xmlns="http://www.w3.org/2000/svg">
<path fill-rule="evenodd" clip-rule="evenodd" d="M8 0C3.584 0 0 3.584 0 8C0 12.416 3.584 16 8 16C12.416 16 16 12.416 16 8C16 3.584 12.416 0 8 0Z" fill="#2ECC91"/>
<path fill-rule="evenodd" clip-rule="evenodd" d="M6 12.336L2.35355 8.68955C2.15829 8.49429 2.15829 8.17771 2.35355 7.98245L2.77494 7.56106C2.97001 7.36599 3.28621 7.36577 3.48155 7.56057L6 10.072L11.7172 4.35481C11.9129 4.15905 12.2305 4.15962 12.4255 4.35606L12.8489 4.78245C13.043 4.97791 13.0425 5.29353 12.8477 5.48831L6 12.336Z" fill="white"/>
</svg>
