<svg width="20" height="13" viewBox="0 0 20 13" fill="none" xmlns="http://www.w3.org/2000/svg">
<path d="M14 3H19.5C19.7761 3 20 3.22386 20 3.5C20 3.77614 19.7761 4 19.5 4H14V3Z" fill="#F1F1F1"/>
<path d="M14 9H19.5C19.7761 9 20 9.22386 20 9.5C20 9.77614 19.7761 10 19.5 10H14V9Z" fill="#F1F1F1"/>
<rect y="6" width="4" height="1" fill="#F1F1F1"/>
<path d="M8.21053 1.97444C6.94737 3.49761 4.87719 3.8784 4 3.8784V9.1216C4.87719 9.1216 6.94737 9.50239 8.21053 11.0256C10.3158 13.564 12.5965 12.9295 14 12.9295V0.0704844C12.5965 0.0704844 10.3158 -0.564022 8.21053 1.97444Z" fill="#F1F1F1"/>
</svg>
