<svg width="18" height="18" viewBox="0 0 18 18" fill="none" xmlns="http://www.w3.org/2000/svg">
<path fill-rule="evenodd" clip-rule="evenodd" d="M14.9128 9.93513C14.6883 8.41456 14.5953 6.75543 14.5953 5C14.5953 2.5 12.7668 0 8.5001 0C6.22174 0 4.63859 0.712867 3.65785 1.75794L14.9128 9.93513ZM15.7756 14.2702C15.6231 14.6821 15.2526 15 14.7807 15H2.21948C1.45251 15 0.953279 14.1601 1.22272 13.442C2.09082 11.1284 2.40486 8.22692 2.40486 5C2.40486 4.8562 2.41091 4.71239 2.42313 4.56907L15.7756 14.2702Z" fill="white"/>
<path d="M8.5 18C9.60457 18 10.5 17.1046 10.5 16H6.5C6.5 17.1046 7.39543 18 8.5 18Z" fill="white"/>
<path d="M0.5 1.5L17 13.2778" stroke="white"/>
</svg>
